<svg width="100" height="69" viewBox="0 0 100 69" fill="none" xmlns="http://www.w3.org/2000/svg">
<g clip-path="url(#clip0_1_122)" filter="url(#filter0_d_1_122)">
<path fill-rule="evenodd" clip-rule="evenodd" d="M8 13H24V14.7H8V13ZM8 19.15H24V20.85H8V19.15ZM8 25.3H24V27H8V25.3Z" fill="#333333"/>
</g>
<path d="M43.8125 14.6562H37.3281V16.0625H42.0859C42.0312 16.8047 41.9141 17.5 41.7344 18.1641L36.5938 18.4844L36.8125 19.9844L41.2109 19.5703C40.3906 21.2422 38.9297 22.6562 36.4844 23.8594L37.4375 25.1719C42.6406 22.5859 43.8047 18.9219 43.8125 14.6562ZM45.7969 27.3594H47.5312V20.2188H49.625V18.7969H47.5312V13.2656H45.7969V27.3594ZM56.0469 14.8906H50.7656V24.1719H51.6875C53.8203 24.1719 55.1719 24.1484 56.7969 23.8281L56.6406 22.4375C55.2578 22.6719 54.1016 22.75 52.4219 22.7734V20.0312H55.4531V18.6875H52.4219V16.2656H56.0469V14.8906ZM56.1406 19.8906H57.8906V26.7031H59.5156V13.5469H57.8906V18.4844H56.1406V19.8906ZM60.7969 27.3906H62.4844V13.2656H60.7969V27.3906ZM75.6562 14.5625H65.4688V15.9531H73.9062C73.8984 17.6484 73.8984 19.6562 73.3438 22.4062L75.0938 22.5938C75.6406 19.6406 75.6406 17.6797 75.6562 15.9219V14.5625ZM64.125 25.5625H77V24.1406H70.5938V19.2344H68.875V24.1406H64.125V25.5625ZM89.7188 13.2656H88V27.4062H89.7188V13.2656ZM78.7188 15.9062H83.6094V18.4219H78.7344V24.0625H79.9688C82.5078 24.0703 84.6172 23.9766 87.0156 23.5625L86.8594 22.1406C84.6562 22.5078 82.7422 22.625 80.5156 22.6406V19.7969H85.375V14.5H78.7188V15.9062Z" fill="#333333"/>
<g clip-path="url(#clip1_1_122)" filter="url(#filter1_d_1_122)">
<path fill-rule="evenodd" clip-rule="evenodd" d="M8 40H24V41.7H8V40ZM8 46.15H24V47.85H8V46.15ZM8 52.3H24V54H8V52.3Z" fill="#5F0080"/>
</g>
<path d="M43.8125 41.6562H37.3281V43.0625H42.0859C42.0312 43.8047 41.9141 44.5 41.7344 45.1641L36.5938 45.4844L36.8125 46.9844L41.2109 46.5703C40.3906 48.2422 38.9297 49.6562 36.4844 50.8594L37.4375 52.1719C42.6406 49.5859 43.8047 45.9219 43.8125 41.6562ZM45.7969 54.3594H47.5312V47.2188H49.625V45.7969H47.5312V40.2656H45.7969V54.3594ZM56.0469 41.8906H50.7656V51.1719H51.6875C53.8203 51.1719 55.1719 51.1484 56.7969 50.8281L56.6406 49.4375C55.2578 49.6719 54.1016 49.75 52.4219 49.7734V47.0312H55.4531V45.6875H52.4219V43.2656H56.0469V41.8906ZM56.1406 46.8906H57.8906V53.7031H59.5156V40.5469H57.8906V45.4844H56.1406V46.8906ZM60.7969 54.3906H62.4844V40.2656H60.7969V54.3906ZM75.6562 41.5625H65.4688V42.9531H73.9062C73.8984 44.6484 73.8984 46.6562 73.3438 49.4062L75.0938 49.5938C75.6406 46.6406 75.6406 44.6797 75.6562 42.9219V41.5625ZM64.125 52.5625H77V51.1406H70.5938V46.2344H68.875V51.1406H64.125V52.5625ZM89.7188 40.2656H88V54.4062H89.7188V40.2656ZM78.7188 42.9062H83.6094V45.4219H78.7344V51.0625H79.9688C82.5078 51.0703 84.6172 50.9766 87.0156 50.5625L86.8594 49.1406C84.6562 49.5078 82.7422 49.625 80.5156 49.6406V46.7969H85.375V41.5H78.7188V42.9062Z" fill="#5F0080"/>
<rect x="0.5" y="0.5" width="99" height="68" rx="4.5" stroke="#9747FF" stroke-dasharray="10 5"/>
<defs>
<filter id="filter0_d_1_122" x="4" y="13" width="24" height="22" filterUnits="userSpaceOnUse" color-interpolation-filters="sRGB">
<feFlood flood-opacity="0" result="BackgroundImageFix"/>
<feColorMatrix in="SourceAlpha" type="matrix" values="0 0 0 0 0 0 0 0 0 0 0 0 0 0 0 0 0 0 127 0" result="hardAlpha"/>
<feOffset dy="4"/>
<feGaussianBlur stdDeviation="2"/>
<feComposite in2="hardAlpha" operator="out"/>
<feColorMatrix type="matrix" values="0 0 0 0 0 0 0 0 0 0 0 0 0 0 0 0 0 0 0.25 0"/>
<feBlend mode="normal" in2="BackgroundImageFix" result="effect1_dropShadow_1_122"/>
<feBlend mode="normal" in="SourceGraphic" in2="effect1_dropShadow_1_122" result="shape"/>
</filter>
<filter id="filter1_d_1_122" x="4" y="40" width="24" height="22" filterUnits="userSpaceOnUse" color-interpolation-filters="sRGB">
<feFlood flood-opacity="0" result="BackgroundImageFix"/>
<feColorMatrix in="SourceAlpha" type="matrix" values="0 0 0 0 0 0 0 0 0 0 0 0 0 0 0 0 0 0 127 0" result="hardAlpha"/>
<feOffset dy="4"/>
<feGaussianBlur stdDeviation="2"/>
<feComposite in2="hardAlpha" operator="out"/>
<feColorMatrix type="matrix" values="0 0 0 0 0 0 0 0 0 0 0 0 0 0 0 0 0 0 0.25 0"/>
<feBlend mode="normal" in2="BackgroundImageFix" result="effect1_dropShadow_1_122"/>
<feBlend mode="normal" in="SourceGraphic" in2="effect1_dropShadow_1_122" result="shape"/>
</filter>
<clipPath id="clip0_1_122">
<rect width="16" height="14" fill="white" transform="translate(8 13)"/>
</clipPath>
<clipPath id="clip1_1_122">
<rect width="16" height="14" fill="white" transform="translate(8 40)"/>
</clipPath>
</defs>
</svg>
