<?xml version="1.0" standalone="no"?>
<!DOCTYPE svg PUBLIC "-//W3C//DTD SVG 20010904//EN"
 "http://www.w3.org/TR/2001/REC-SVG-20010904/DTD/svg10.dtd">
<svg version="1.0" xmlns="http://www.w3.org/2000/svg"
 width="440.000000pt" height="586.000000pt" viewBox="0 0 440.000000 586.000000"
 preserveAspectRatio="xMidYMid meet">

<g transform="translate(0.000000,586.000000) scale(0.100000,-0.100000)"
fill="#000000" stroke="none">
<path d="M0 4366 l0 -1493 93 22 c81 20 186 42 445 90 70 14 76 13 141 -10 38
-14 76 -25 85 -25 9 0 16 -5 16 -11 0 -8 4 -8 14 0 12 10 14 9 10 -6 -5 -16 1
-18 63 -15 57 3 85 -3 173 -33 143 -50 144 -50 85 -69 l-50 -16 49 5 c40 4 46
3 37 -8 -6 -8 -8 -17 -4 -20 3 -4 1 -7 -6 -7 -6 0 -25 -10 -41 -21 -23 -18
-38 -21 -84 -17 -51 4 -56 3 -50 -14 3 -12 0 -18 -9 -18 -8 0 -17 -7 -21 -15
-3 -8 -17 -15 -31 -15 -27 0 -28 2 -61 94 -16 48 -18 49 -27 25 -28 -66 -33
-104 -20 -165 12 -62 70 -181 100 -205 14 -12 15 -10 9 16 -3 17 -8 40 -10 52
-3 11 -12 35 -20 52 -9 16 -16 42 -16 56 0 25 1 25 54 19 31 -4 75 -1 105 6
41 10 54 10 67 0 11 -10 20 -10 40 -1 42 19 72 14 71 -11 0 -36 10 -74 28
-101 21 -33 45 -43 38 -16 -3 10 -9 16 -14 14 -4 -3 -13 3 -18 14 -13 23 -14
44 -3 37 4 -2 14 -1 22 5 11 6 8 9 -13 9 -24 0 -27 4 -25 28 1 17 8 28 17 28
9 0 38 4 65 8 48 8 49 7 44 -18 -6 -29 8 -36 15 -8 3 9 5 -30 6 -87 1 -90 -2
-108 -21 -140 -40 -66 -89 -121 -109 -121 -11 0 -17 -5 -14 -10 3 -6 -4 -14
-17 -19 -13 -6 -20 -10 -15 -10 18 -2 -28 -51 -66 -71 l-42 -21 40 3 c32 2 47
10 73 40 19 21 38 38 43 38 10 0 102 63 137 94 13 12 33 39 44 61 19 36 19 38
3 25 -15 -12 -15 -7 5 27 13 23 26 40 30 38 10 -6 35 59 65 170 32 115 85 217
157 300 37 43 156 126 201 141 9 4 17 9 17 13 0 4 12 8 26 9 25 2 24 0 -12
-24 -60 -40 -81 -63 -103 -110 -24 -50 -25 -54 -10 -54 5 0 7 6 3 13 -5 8 -2
8 9 -2 15 -12 17 -11 17 3 0 9 7 16 15 16 8 0 15 5 15 11 0 5 5 7 12 3 7 -4 8
-3 4 4 -9 15 65 52 100 49 28 -2 73 -36 67 -49 -2 -5 3 -8 11 -8 8 0 21 -10
27 -22 7 -13 16 -26 21 -29 17 -11 36 -105 26 -123 -6 -10 -11 -30 -13 -44 -1
-14 -8 -28 -14 -30 -6 -2 -9 -7 -6 -12 2 -4 -6 -19 -19 -33 -13 -14 -21 -29
-18 -32 4 -3 2 -9 -3 -13 -6 -4 -16 -23 -23 -42 -12 -33 -11 -36 19 -64 27
-26 30 -33 26 -75 -3 -25 -10 -59 -16 -75 -7 -16 -13 -50 -15 -75 -8 -93 -19
-151 -28 -145 -6 4 -8 -9 -4 -36 3 -26 1 -49 -5 -57 -9 -10 -8 -18 5 -32 16
-17 15 -19 -3 -32 -18 -12 -28 -38 -34 -89 -1 -8 -9 -23 -17 -33 -8 -10 -15
-23 -15 -30 0 -16 -57 -42 -124 -56 -30 -6 -59 -15 -65 -19 -6 -5 -37 -17 -69
-27 -49 -17 -61 -17 -80 -6 -18 11 -20 11 -9 0 19 -20 15 -27 -30 -55 -24 -15
-45 -30 -48 -34 -3 -3 -16 -14 -30 -24 l-25 -18 25 7 c14 4 48 22 75 40 69 46
209 102 283 114 69 11 119 1 146 -28 17 -19 17 -20 -6 -34 -111 -69 -138 -87
-138 -91 0 -3 63 -1 145 6 22 2 29 -1 27 -12 -3 -10 3 -9 19 5 12 11 19 14 15
7 -12 -20 21 -26 189 -36 69 -5 74 -4 38 5 -67 16 -47 37 76 80 58 20 106 25
115 10 6 -9 43 -8 139 4 37 5 57 4 57 -2 0 -6 -23 -13 -50 -17 -43 -6 -64 -18
-148 -85 -165 -134 -202 -177 -239 -281 -16 -46 -16 -51 -1 -66 14 -14 22 -15
45 -6 15 6 53 10 84 9 59 -1 129 25 129 49 0 6 8 18 17 25 14 12 16 12 8 0 -5
-8 13 1 39 19 36 27 51 32 63 24 21 -13 29 -34 13 -34 -7 0 -55 -21 -108 -47
-78 -38 -110 -48 -168 -52 -40 -4 -79 -13 -89 -21 -14 -12 -49 -15 -156 -15
-75 0 -141 4 -146 8 -4 5 -8 33 -8 62 0 29 -3 56 -6 59 -3 3 -103 33 -223 65
-119 33 -223 64 -230 70 -7 6 -51 10 -104 8 -56 -1 -92 2 -93 8 -3 25 4 52 18
74 11 18 13 26 5 29 -23 7 -11 18 16 15 48 -7 94 26 108 77 7 24 11 46 9 48
-2 2 -30 -17 -62 -43 -53 -44 -61 -47 -104 -43 -58 6 -85 27 -138 105 -23 35
-53 68 -67 73 -14 6 -70 13 -126 17 -83 5 -105 10 -127 28 -14 12 -51 37 -81
55 -70 42 -67 40 -51 49 9 6 -5 11 -40 16 -30 3 -70 11 -89 16 -19 6 -71 12
-115 15 -44 3 -89 11 -100 18 -11 7 -76 32 -145 55 -69 24 -144 53 -168 66
l-42 24 0 -215 0 -215 33 6 c40 8 186 -10 200 -24 17 -17 4 -22 -77 -28 -42
-3 -79 -10 -82 -14 -3 -5 4 -9 15 -9 12 0 21 -4 21 -9 0 -14 -35 -23 -64 -15
-28 7 -36 34 -11 34 8 0 15 5 15 10 0 6 -11 10 -25 10 -22 0 -25 -4 -25 -35 0
-34 1 -35 43 -35 49 0 79 -13 52 -24 -25 -9 -63 -7 -70 4 -3 6 -10 10 -16 10
-5 0 -9 -303 -9 -790 l0 -790 2200 0 2200 0 -1 1153 c-1 633 -3 1145 -6 1135
-2 -9 -15 -19 -29 -22 -14 -4 -22 -11 -19 -16 6 -10 -13 -24 -35 -25 -8 0 -14
-8 -14 -18 2 -13 -1 -15 -11 -7 -9 8 -11 4 -9 -17 2 -16 1 -23 -2 -16 -4 10
-8 10 -19 0 -7 -7 -11 -15 -8 -20 2 -4 -1 -7 -6 -7 -6 0 -11 -6 -11 -14 0 -8
-5 -18 -12 -22 -7 -5 -8 -3 -3 6 6 9 4 11 -4 6 -7 -5 -10 -14 -7 -22 3 -8 1
-14 -4 -14 -6 0 -25 -16 -44 -35 -33 -34 -34 -34 -52 -14 -10 11 -24 17 -31
15 -7 -3 -25 6 -40 19 l-28 24 27 27 27 27 26 -31 c33 -40 82 -45 87 -9 7 47
-21 101 -66 130 -63 40 -90 36 -161 -24 -170 -142 -150 -117 -228 -291 -31
-67 -41 -75 -71 -54 -13 8 -34 13 -45 11 -23 -4 -28 14 -9 34 11 10 8 12 -12
9 -15 -2 -24 2 -23 9 2 6 -4 24 -11 38 -8 15 -12 39 -10 54 3 14 7 37 10 51
14 78 17 113 6 107 -5 -4 -9 -1 -7 5 10 40 19 58 29 58 8 0 8 2 -1 8 -8 5 -5
20 11 54 13 26 27 53 33 60 16 20 33 79 27 90 -3 5 -12 1 -20 -9 -8 -10 -5 2
7 27 17 35 18 42 5 31 -25 -21 -19 -5 13 31 32 37 47 108 23 108 -7 0 -10 5
-7 10 3 6 2 10 -3 10 -5 0 -12 9 -15 21 -5 17 -3 18 9 8 13 -11 14 -9 4 12 -9
19 -8 31 4 54 8 15 13 32 10 37 -3 4 -1 8 4 8 12 0 11 34 -2 42 -7 5 -5 13 4
25 32 39 42 65 30 73 -9 5 -9 9 -1 14 6 4 15 5 20 1 6 -3 25 15 43 39 18 25
38 45 43 46 6 0 18 9 28 20 20 23 22 23 102 9 33 -6 77 -12 98 -14 21 -3 44
-8 50 -12 7 -4 19 -9 27 -10 8 -2 29 -5 45 -8 49 -8 142 -32 156 -40 6 -5 27
-8 46 -9 l33 -1 0 1443 0 1442 -2200 0 -2200 0 0 -1494z m3337 998 c1 -53 -2
-107 -7 -120 -9 -23 -7 -24 25 -24 41 0 48 -20 8 -21 -16 0 -22 -3 -15 -6 6
-2 12 -13 12 -24 0 -10 7 -19 15 -19 8 0 15 -7 15 -15 0 -10 -12 -15 -37 -17
-36 -1 -35 -2 10 -7 86 -11 57 -26 -55 -29 -92 -2 -108 0 -108 13 0 11 12 15
48 17 42 1 43 2 10 5 -39 4 -63 33 -28 33 13 0 20 7 20 20 0 11 7 20 15 20 8
0 15 -9 15 -20 0 -15 7 -20 25 -20 20 0 25 5 25 25 0 23 -3 25 -52 25 -80 1
-90 13 -87 107 2 82 15 137 30 128 5 -3 7 -53 6 -110 l-2 -105 25 0 c25 0 25
1 28 94 1 57 8 109 18 131 24 59 39 30 41 -81z m-712 96 c-3 -5 -2 -10 4 -10
13 0 7 -167 -7 -202 -14 -35 -20 -35 -33 -1 -8 22 -12 24 -19 13 -6 -10 -9 9
-8 55 1 78 8 114 23 116 6 1 16 10 23 20 13 19 28 27 17 9z m-170 -40 c0 -7
-6 -15 -12 -17 -8 -3 -13 4 -13 17 0 13 5 20 13 18 6 -3 12 -11 12 -18z m1570
-90 c7 -93 -3 -143 -28 -148 -25 -5 -26 75 -3 198 2 14 5 32 5 40 1 9 4 11 11
4 5 -5 12 -48 15 -94z m-125 -119 c0 -31 -15 -50 -22 -29 -6 18 3 58 13 58 5
0 9 -13 9 -29z m-2710 -107 c0 -96 -3 -125 -12 -122 -8 3 -14 27 -16 61 -3 53
-5 57 -27 57 -14 0 -25 5 -25 10 0 6 11 10 25 10 24 0 25 3 25 55 0 42 3 55
15 55 13 0 15 -21 15 -126z m500 91 c0 -24 5 -35 15 -35 8 0 15 -7 15 -15 0
-8 -7 -15 -15 -15 -11 0 -15 -11 -15 -40 0 -29 -4 -40 -15 -40 -12 0 -15 17
-15 90 0 73 3 90 15 90 10 0 15 -11 15 -35z m220 -10 c0 -38 3 -45 20 -45 11
0 20 -7 20 -15 0 -8 -9 -15 -20 -15 -18 0 -20 -7 -20 -66 0 -48 -3 -65 -12
-62 -9 3 -14 40 -16 126 -2 104 0 122 13 122 11 0 15 -11 15 -45z m750 -80 c0
-104 -2 -125 -15 -125 -13 0 -15 21 -15 125 0 104 2 125 15 125 13 0 15 -21
15 -125z m470 89 c0 -13 5 -24 10 -24 6 0 10 14 10 30 0 20 5 30 15 30 13 0
15 -14 13 -82 -2 -54 -7 -83 -15 -86 -9 -2 -13 9 -13 37 0 23 -4 41 -10 41 -5
0 -10 -13 -10 -30 0 -20 -5 -30 -15 -30 -12 0 -15 14 -15 68 0 38 3 72 6 75
12 11 24 -3 24 -29z m-1740 6 c35 -35 2 -70 -67 -70 -39 0 -83 22 -83 42 0 47
110 68 150 28z m620 -10 c0 -29 1 -29 62 -32 38 -2 63 -8 66 -15 3 -10 -17
-13 -77 -13 l-81 0 0 45 c0 33 4 45 15 45 10 0 15 -10 15 -30z m280 16 c0 -16
30 -26 78 -26 25 0 32 4 32 20 0 11 7 20 15 20 12 0 15 -13 15 -55 l0 -55 -85
0 -85 0 0 55 c0 42 3 55 15 55 8 0 15 -6 15 -14z m650 4 c0 -6 -35 -10 -85
-10 -50 0 -85 4 -85 10 0 6 35 10 85 10 50 0 85 -4 85 -10z m-1840 -10 c0 -5
-16 -10 -35 -10 -19 0 -35 5 -35 10 0 6 16 10 35 10 19 0 35 -4 35 -10z m530
-50 l0 -60 -60 0 -60 0 0 60 0 60 60 0 60 0 0 -60z m130 -11 l0 -72 55 7 c45
5 55 3 55 -9 0 -12 -14 -15 -65 -15 l-65 0 0 80 c0 47 4 80 10 80 6 0 10 -30
10 -71z m828 59 c-3 -7 -23 -14 -46 -16 -34 -3 -42 -7 -42 -23 0 -16 7 -19 40
-19 29 0 40 -4 40 -15 0 -11 -11 -15 -40 -15 -36 0 -40 -2 -40 -25 0 -25 1
-25 55 -19 35 4 55 3 55 -4 0 -15 -26 -22 -86 -22 l-54 0 0 78 c0 43 3 82 7
85 3 4 31 7 61 7 38 0 53 -4 50 -12z m492 -23 c0 -33 -2 -35 -35 -35 -24 0
-35 -5 -35 -15 0 -11 11 -15 40 -15 49 0 53 -17 6 -25 -57 -11 -71 -4 -71 35
0 32 3 35 33 38 46 5 43 32 -3 32 -19 0 -35 5 -35 10 0 6 23 10 50 10 l50 0 0
-35z m-250 0 c0 -9 9 -15 25 -15 16 0 25 6 25 15 0 8 7 15 15 15 8 0 15 -7 15
-15 0 -8 7 -15 15 -15 8 0 15 -7 15 -15 0 -12 -16 -15 -85 -15 -69 0 -85 3
-85 15 0 8 7 15 15 15 8 0 15 7 15 15 0 8 7 15 15 15 8 0 15 -7 15 -15z
m-1700 -15 c0 -5 -11 -10 -25 -10 -20 0 -25 -5 -25 -25 0 -14 12 -37 26 -52
15 -15 22 -29 17 -34 -6 -6 -19 1 -33 16 l-24 25 -27 -26 c-37 -35 -60 -22
-26 15 14 14 29 38 32 54 6 24 5 27 -19 27 -14 0 -26 5 -26 10 0 6 28 10 65
10 37 0 65 -4 65 -10z m1838 -52 c-3 -9 -37 -14 -111 -16 -91 -2 -107 0 -107
13 0 13 18 15 111 15 84 0 110 -3 107 -12z m-1538 -8 c0 -6 -42 -10 -105 -10
-63 0 -105 4 -105 10 0 6 42 10 105 10 63 0 105 -4 105 -10z m666 0 c43 0 74
-4 74 -10 0 -6 -43 -10 -110 -10 -60 0 -110 4 -110 8 0 17 16 23 44 18 16 -3
62 -6 102 -6z m354 -30 c0 -5 -11 -10 -25 -10 -22 0 -25 -4 -25 -40 0 -29 -4
-40 -15 -40 -11 0 -15 11 -15 40 0 36 -2 40 -25 40 -22 0 -25 -4 -25 -40 0
-29 -4 -40 -15 -40 -11 0 -15 11 -15 40 0 36 -2 40 -25 40 -14 0 -25 5 -25 10
0 6 42 10 105 10 63 0 105 -4 105 -10z m490 -20 l0 -29 -72 -4 -73 -3 78 -2
c62 -2 77 -5 77 -17 0 -13 -14 -15 -87 -13 l-88 3 0 30 c0 30 0 30 70 36 l70
5 -72 2 c-104 3 -93 22 12 22 l85 0 0 -30z m196 -22 c10 -10 23 -18 31 -18 7
0 13 -7 13 -16 0 -18 -35 -11 -63 14 -15 13 -21 14 -35 4 -39 -28 -62 -36 -74
-24 -8 8 -5 14 15 21 14 6 36 24 49 41 21 29 23 30 35 13 7 -10 20 -26 29 -35z
m-1728 0 l3 -38 -85 0 -86 0 0 40 0 41 83 -3 82 -3 3 -37z m154 15 c3 -27 5
-28 71 -31 91 -4 76 -22 -19 -22 l-74 0 0 40 c0 45 17 55 22 13z m1826 -15
l-3 -43 -50 -1 c-95 -2 -105 2 -105 47 l0 39 81 0 80 0 -3 -42z m-1378 7 c0
-24 2 -25 65 -25 37 0 65 -4 65 -10 0 -6 -33 -10 -80 -10 l-80 0 0 35 c0 24 5
35 15 35 9 0 15 -9 15 -25z m98 -237 c17 -17 15 -46 -8 -113 -11 -32 -19 -60
-17 -62 9 -8 108 52 145 88 38 38 42 40 42 19 0 -25 -52 -77 -106 -106 -19
-10 -34 -22 -34 -27 0 -4 16 -39 35 -77 41 -81 70 -105 117 -96 l33 7 -25 -15
c-63 -38 -129 2 -180 110 -17 36 -34 62 -39 59 -12 -7 -41 -93 -41 -122 0 -20
-5 -24 -22 -21 -14 2 -24 11 -26 23 -1 11 20 83 47 160 27 76 47 143 45 147
-10 16 -43 8 -74 -18 -45 -39 -63 -79 -57 -131 3 -28 1 -43 -6 -40 -61 20 5
166 96 211 39 19 59 20 75 4z m660 -1 c13 -15 3 -52 -52 -196 -20 -52 -34
-101 -32 -108 10 -26 39 1 67 63 30 66 36 94 19 94 -5 0 -10 9 -10 20 0 11 5
20 10 20 6 0 10 -7 10 -15 0 -17 16 -20 25 -5 10 16 25 1 25 -26 0 -13 -11
-51 -25 -84 -30 -72 -31 -80 -6 -80 25 0 63 50 87 115 21 58 33 70 53 51 11
-12 9 -25 -13 -83 -14 -38 -26 -71 -26 -73 0 -3 17 -5 37 -5 28 0 38 -4 41
-18 4 -17 2 -18 -20 -3 -41 27 -60 12 -105 -83 -43 -91 -72 -118 -106 -99 -33
18 -20 57 43 122 62 65 74 84 41 66 -31 -16 -70 -12 -83 10 -12 19 -13 19 -34
-1 -26 -24 -77 -23 -82 3 -3 13 52 182 98 303 11 28 22 32 38 12z m-448 -161
c0 -6 -10 -39 -22 -73 -16 -44 -19 -66 -12 -73 26 -26 64 21 94 115 16 53 27
63 45 44 14 -13 13 -23 -9 -87 -25 -73 -22 -91 13 -73 20 11 58 85 68 132 4
23 10 29 27 27 13 -2 20 -10 20 -21 -2 -23 9 -22 31 3 22 24 68 23 73 -1 2 -9
-4 -24 -13 -33 -18 -18 -40 -22 -30 -6 3 6 -1 13 -10 16 -24 9 -60 -30 -85
-92 -16 -37 -28 -54 -40 -54 -10 0 -20 5 -22 11 -3 9 -9 9 -25 0 -30 -16 -63
-14 -70 4 -5 14 -8 14 -30 0 -13 -9 -36 -15 -51 -13 -22 2 -28 9 -30 33 -4 32
26 146 42 157 12 8 36 -1 36 -16z m-845 -141 c0 -25 -4 -30 -27 -33 -26 -3
-28 -1 -28 33 0 34 2 36 27 33 23 -2 27 -8 28 -33z m68 28 c-27 -5 -31 -22 -5
-24 16 -1 16 -2 0 -6 -25 -6 -22 -21 5 -26 19 -4 18 -4 -5 -6 -26 -1 -28 2
-28 34 0 32 2 35 28 34 23 -2 24 -2 5 -6z m97 -19 c13 -33 13 -54 0 -34 -8 12
-13 13 -30 2 -23 -14 -23 -14 -9 27 13 38 26 40 39 5z m60 -4 c0 -39 27 -41
33 -2 4 26 4 25 3 -3 -1 -33 -32 -48 -47 -23 -12 18 -11 58 1 58 6 0 10 -13
10 -30z m123 23 c-7 -2 -13 -18 -13 -34 0 -16 -4 -29 -10 -29 -5 0 -10 13 -10
29 0 16 -6 32 -12 34 -7 3 3 5 22 5 19 0 29 -2 23 -5z m60 -5 c4 -10 8 -9 16
2 5 8 13 11 17 7 4 -4 2 -13 -4 -19 -7 -7 -12 -20 -12 -30 0 -30 -14 -20 -26
17 -10 32 -2 51 9 23z m2367 -506 c0 -13 -12 -22 -22 -16 -10 6 -1 24 13 24 5
0 9 -4 9 -8z m-1786 -224 c-5 -8 -2 -9 10 -5 13 5 19 1 23 -13 4 -15 9 -18 18
-10 8 7 15 3 23 -15 6 -14 16 -25 22 -25 5 0 9 -5 8 -12 -2 -7 3 -12 11 -13 8
0 24 -15 35 -34 11 -19 15 -32 9 -28 -7 5 -9 0 -6 -13 3 -10 8 -19 12 -18 3 0
14 0 24 -1 14 -1 15 -4 6 -19 -7 -11 -35 -24 -73 -32 -33 -7 -73 -19 -88 -27
-30 -15 -38 -43 -12 -43 9 0 12 -5 8 -12 -5 -9 -2 -9 9 1 14 11 17 11 17 0 0
-11 2 -11 10 1 6 9 10 10 10 3 0 -13 -19 -28 -35 -28 -5 0 -11 -14 -13 -31 -3
-26 3 -36 26 -53 31 -22 72 -28 72 -11 0 6 10 10 23 10 16 0 18 -3 9 -9 -10
-6 -5 -10 16 -14 36 -7 71 1 95 22 16 13 18 13 15 1 -2 -8 3 -14 10 -12 8 1
11 -2 7 -8 -3 -5 -2 -10 4 -10 15 0 -17 -90 -68 -190 -12 -23 -17 -53 -16 -88
2 -43 0 -52 -12 -48 -8 3 -12 2 -8 -3 3 -5 -2 -16 -10 -24 -8 -9 -15 -20 -15
-26 0 -5 -4 -13 -10 -16 -6 -3 -7 1 -4 12 5 17 5 17 -6 1 -6 -10 -24 -32 -40
-50 -17 -18 -30 -35 -30 -39 0 -7 -8 -8 -70 -12 -55 -4 -70 0 -63 19 3 8 1 14
-5 14 -5 0 -12 6 -15 14 -4 10 9 13 54 15 62 2 103 13 114 30 3 6 11 11 16 11
6 0 7 -5 3 -12 -4 -6 -3 -8 4 -5 5 4 9 15 7 25 -1 9 2 23 8 30 5 6 6 12 1 12
-5 0 -4 4 3 8 12 7 16 25 14 55 -1 16 -6 17 -33 11 -39 -9 -128 -12 -128 -3 0
5 -74 5 -136 1 -13 -1 -24 -11 -27 -23 -6 -23 -32 -21 -33 2 -1 26 -15 59 -23
54 -16 -9 -62 103 -66 159 -2 31 -1 57 3 57 4 1 19 3 34 4 14 2 47 11 72 19
25 9 53 13 63 9 15 -5 16 -3 6 8 -7 7 -13 18 -13 23 0 6 7 1 14 -10 15 -21 15
-26 -21 -183 -4 -16 -2 -22 5 -17 7 4 10 2 6 -7 -12 -33 78 -58 113 -31 10 7
23 13 28 14 6 0 3 -5 -5 -10 -20 -13 1 -13 34 0 18 7 26 17 26 34 0 43 -50 75
-64 40 -3 -8 -2 -12 4 -9 5 3 14 -4 20 -15 10 -19 8 -20 -29 -20 -22 0 -43 -4
-46 -10 -11 -17 -43 -11 -58 11 -11 15 -13 29 -6 52 5 18 11 69 14 115 3 66 1
84 -10 89 -8 3 -13 9 -10 13 3 5 1 11 -5 15 -5 3 -10 15 -10 25 0 12 -22 35
-55 60 -56 41 -62 60 -26 86 8 6 12 18 8 27 -3 9 -1 17 4 19 6 2 11 12 13 23
1 10 9 21 16 23 8 3 10 0 5 -9 -4 -8 4 0 18 16 14 17 28 27 32 23 4 -4 20 1
35 12 23 16 62 36 78 39 2 1 0 -4 -4 -11z m-1214 -239 c0 -8 22 -10 75 -5 48
4 75 3 75 -3 0 -10 -11 -13 -137 -31 -90 -13 -133 -13 -133 0 0 5 16 12 36 16
19 4 38 13 41 20 6 17 43 19 43 3z m1427 -63 c4 -5 1 -6 -4 -3 -6 4 -16 0 -23
-8 -12 -15 -81 -21 -93 -9 -3 3 -3 12 0 20 4 11 20 14 60 12 30 -2 57 -7 60
-12z m-434 -81 c3 -16 0 -24 -7 -22 -12 4 -18 47 -6 47 4 0 10 -11 13 -25z
m348 -16 c10 -19 9 -20 -13 -14 -29 9 -31 11 -23 24 10 17 23 13 36 -10z
m-251 -384 c0 -8 -2 -15 -4 -15 -2 0 -6 7 -10 15 -3 8 -1 15 4 15 6 0 10 -7
10 -15z m107 9 c-3 -3 -12 -4 -19 -1 -8 3 -5 6 6 6 11 1 17 -2 13 -5z m46 -1
c-7 -2 -19 -2 -25 0 -7 3 -2 5 12 5 14 0 19 -2 13 -5z m705 -40 c35 -17 57
-35 63 -52 11 -26 3 -108 -13 -150 -14 -38 0 -37 18 2 10 20 22 34 27 30 16
-10 -3 -123 -30 -177 l-25 -51 26 24 c14 14 26 30 26 38 0 7 5 13 11 13 8 0
10 -46 7 -152 -5 -190 -27 -268 -99 -358 -42 -51 -44 -63 -9 -50 3 1 8 2 11 2
3 -1 12 10 19 23 7 14 16 25 19 25 7 0 2 -182 -5 -189 -2 -3 -14 5 -27 17 -13
12 -26 22 -30 22 -14 0 -6 -39 11 -52 9 -7 28 -28 41 -47 18 -26 21 -38 13
-51 -9 -14 -4 -21 29 -41 21 -13 39 -29 39 -36 0 -9 -41 -25 -65 -24 -2 0 -18
-4 -35 -9 -18 -5 -30 -5 -30 0 0 6 -10 6 -25 0 -14 -5 -25 -8 -25 -6 0 2 -22
-2 -50 -9 -27 -7 -50 -11 -50 -8 0 3 -12 -2 -26 -12 -20 -13 -28 -14 -40 -4
-9 8 -32 10 -65 6 -27 -3 -48 -3 -45 1 5 9 -21 33 -31 30 -4 -2 -9 6 -12 17
-5 29 -32 45 -63 39 -27 -5 -28 -4 -27 38 1 115 21 159 87 192 28 14 31 19 22
37 -14 24 -17 156 -5 183 6 15 5 17 -5 11 -11 -7 -12 3 -6 48 4 36 2 57 -4 57
-5 0 -10 -6 -10 -12 0 -44 -35 -115 -37 -75 -3 65 -14 152 -22 185 -6 21 -12
58 -13 80 -1 23 -5 39 -10 36 -24 -15 20 233 53 299 18 35 21 36 42 23 22 -15
22 -18 16 -168 -4 -84 -9 -196 -12 -248 l-6 -95 14 110 c8 61 18 179 24 263 8
140 11 156 32 178 30 32 79 57 79 41 0 -8 3 -7 9 1 4 8 17 13 27 12 43 -5 74
1 74 13 0 20 55 10 118 -20z m-2000 -177 c-7 -8 -15 -12 -17 -11 -5 6 10 25
20 25 5 0 4 -6 -3 -14z m1433 -69 c-10 -9 -11 -8 -5 6 3 10 9 15 12 12 3 -3 0
-11 -7 -18z m-1616 -92 c-22 -8 -56 -13 -75 -13 l-35 0 40 13 c22 7 56 13 75
13 l35 0 -40 -13z m422 -67 c-3 -8 -6 -5 -6 6 -1 11 2 17 5 13 3 -3 4 -12 1
-19z m1340 -350 c-3 -8 -6 -5 -6 6 -1 11 2 17 5 13 3 -3 4 -12 1 -19z m1200
-50 c-3 -8 -6 -5 -6 6 -1 11 2 17 5 13 3 -3 4 -12 1 -19z m-28 -15 c-2 -10 3
-28 9 -41 13 -23 8 -47 -9 -37 -5 4 -9 15 -9 26 0 14 -5 18 -22 15 -13 -3 -31
-5 -42 -5 -15 -1 -16 -4 -6 -16 7 -8 19 -15 27 -15 10 0 12 -6 7 -22 -10 -35
-27 -40 -46 -17 -23 27 -23 16 -2 -17 15 -23 15 -26 0 -43 -20 -22 -61 -32
-75 -18 -15 15 8 67 30 67 12 0 19 7 19 20 0 34 21 64 63 92 49 32 59 34 56
11z m-634 -52 c3 -21 3 -56 -1 -77 l-7 -39 -13 30 c-21 48 -16 144 6 130 5 -3
11 -23 15 -44z m825 19 c0 -5 -4 -10 -10 -10 -5 0 -10 5 -10 10 0 6 5 10 10
10 6 0 10 -4 10 -10z m-644 -372 c29 -32 -8 -71 -43 -45 -7 5 -18 5 -24 1 -7
-4 -9 -3 -6 3 4 6 -7 14 -26 18 -17 4 -26 9 -19 12 6 2 10 8 8 12 -3 4 7 8 22
9 15 1 28 6 30 11 4 13 38 1 58 -21z m-532 -101 c11 -13 53 -36 92 -51 77 -30
130 -68 119 -86 -3 -6 -3 -9 2 -8 16 4 53 -14 47 -23 -3 -6 4 -7 19 -4 17 5
33 -1 55 -20 36 -30 34 -45 -5 -45 -24 0 -183 92 -230 133 -12 10 -26 16 -32
13 -6 -4 -28 1 -48 11 -21 10 -40 18 -43 18 -18 2 -70 38 -70 48 0 40 62 49
94 14z m256 -12 c-7 -8 -16 -15 -21 -15 -5 0 -9 7 -9 15 0 9 9 15 21 15 18 0
19 -2 9 -15z m-2756 -9 c-7 -19 -41 -27 -71 -15 -36 13 -18 29 32 29 34 0 43
-3 39 -14z m2381 -36 c17 -11 32 -30 35 -42 4 -16 17 -26 42 -32 20 -5 38 -17
41 -26 2 -9 17 -20 33 -23 27 -6 174 -133 174 -150 0 -4 18 -23 40 -43 46 -41
51 -64 16 -64 -22 0 -85 45 -126 89 -8 9 -34 29 -58 45 -23 16 -72 55 -108 87
-49 43 -81 62 -127 76 -58 18 -62 21 -60 47 4 57 44 72 98 36z m-1715 -42 c8
-10 94 -13 107 -5 7 5 9 -1 6 -14 -3 -11 -11 -18 -18 -15 -34 12 -105 18 -105
7 0 -6 -5 -11 -11 -11 -6 0 -8 7 -5 16 3 8 1 25 -6 37 -11 21 -10 21 8 7 10
-8 21 -18 24 -22z m1412 -23 c2 -19 0 -42 -4 -50 -6 -10 -2 -22 12 -37 14 -15
17 -24 9 -29 -7 -4 -9 -15 -5 -25 6 -15 5 -17 -5 -6 -19 18 -59 15 -59 -4 0
-8 4 -12 10 -9 5 3 7 0 4 -8 -5 -15 -84 -20 -84 -5 0 4 -6 8 -14 8 -19 0 -26
34 -12 58 37 63 71 105 99 122 42 26 44 26 49 -15z m-1507 5 c3 -6 -4 -10 -17
-10 -18 0 -20 2 -8 10 19 12 18 12 25 0z m1708 -24 c9 -7 17 -17 17 -22 0 -5
10 -15 21 -23 18 -10 19 -15 8 -22 -10 -6 -10 -9 -1 -9 6 0 12 -5 12 -10 0 -6
-13 -8 -31 -5 -22 4 -28 2 -23 -6 5 -9 2 -10 -10 -6 -22 9 -43 -2 -26 -13 6
-4 13 -27 16 -51 3 -35 1 -40 -7 -26 -6 10 -9 21 -6 24 6 6 -24 43 -35 43 -5
0 -8 -5 -8 -11 0 -5 5 -7 10 -4 6 3 10 4 10 1 0 -2 3 -11 6 -20 5 -12 0 -13
-22 -7 -36 9 -55 38 -34 51 8 5 11 10 7 10 -5 0 0 12 11 28 11 15 23 38 27 52
7 23 22 40 35 40 3 -1 13 -7 23 -14z m160 -92 c12 -15 41 -46 65 -70 23 -23
42 -48 42 -54 0 -6 4 -9 9 -6 14 9 71 -43 71 -65 0 -28 -22 -23 -76 16 -27 19
-75 53 -106 75 -61 43 -88 74 -88 101 0 36 53 38 83 3z m517 -89 c-18 -35 -19
-37 -13 -10 3 17 10 32 15 33 4 2 8 11 9 20 0 10 3 12 5 7 2 -6 -5 -29 -16
-50z m-568 -66 c26 -27 51 -49 55 -49 12 0 53 -43 53 -57 0 -22 -26 -15 -59
16 -18 17 -35 30 -39 29 -4 0 -11 8 -17 18 -5 11 -17 18 -25 16 -22 -4 -74 53
-66 73 9 25 45 9 98 -46z m-70 -26 c57 -43 72 -67 29 -43 -12 6 -21 9 -21 6 0
-3 -25 4 -57 15 -31 10 -73 19 -95 19 -48 0 -48 10 0 38 47 28 70 23 144 -35z
m578 -85 c0 -16 -5 -19 -25 -14 -19 5 -23 3 -19 -9 4 -8 2 -15 -4 -15 -15 0
-8 30 9 41 8 5 10 9 6 9 -5 0 -6 4 -2 10 9 15 35 -1 35 -22z m-1169 -71 l36
-41 -21 -21 c-12 -13 -30 -21 -42 -19 -12 2 -38 -3 -58 -11 -61 -26 -100 -19
-167 26 l-60 42 33 31 c29 27 42 32 108 36 111 8 130 4 171 -43z m1099 31 c0
-18 -2 -20 -9 -8 -6 8 -7 18 -5 22 9 14 14 9 14 -14z m-193 -94 c-3 -3 -12 -4
-19 -1 -8 3 -5 6 6 6 11 1 17 -2 13 -5z m-1737 -305 c0 -53 -4 -89 -10 -89 -6
0 -10 39 -10 96 0 61 4 93 10 89 6 -3 10 -46 10 -96z m400 65 c0 -27 4 -35 14
-31 8 3 17 -1 20 -10 4 -10 -1 -17 -15 -20 -17 -5 -20 -12 -17 -47 2 -33 -1
-41 -16 -44 -18 -4 -18 15 -7 181 1 4 6 7 11 7 6 0 10 -16 10 -36z m182 -5 c6
-36 1 -39 -57 -41 -25 0 -45 -5 -45 -9 0 -5 20 -8 43 -8 55 3 86 -13 43 -21
-44 -8 -45 -30 -2 -30 19 0 38 -4 41 -10 4 -6 -26 -10 -84 -10 -49 0 -93 5
-96 10 -4 6 10 10 34 10 31 0 41 4 41 16 0 12 -7 15 -25 12 -25 -5 -29 0 -25
37 3 28 6 29 48 27 20 -1 44 3 52 8 11 8 -1 10 -46 8 -53 -3 -60 -1 -56 14 4
18 36 25 94 20 31 -3 37 -8 40 -33z m228 11 c0 -17 5 -29 11 -27 6 1 14 -4 16
-10 3 -7 -2 -13 -11 -13 -11 0 -16 -9 -16 -30 0 -20 -5 -30 -15 -30 -12 0 -15
14 -15 70 0 56 3 70 15 70 10 0 15 -10 15 -30z m180 -1 c0 -19 7 -37 18 -45
16 -13 16 -13 -1 -14 -16 0 -18 -7 -16 -47 3 -38 0 -49 -13 -51 -11 -2 -18 5
-20 20 -3 20 -9 23 -53 24 -76 2 -82 3 -67 13 8 4 13 14 12 22 -1 8 -2 31 -1
52 2 56 21 45 21 -13 l0 -50 45 0 45 0 0 60 c0 47 3 60 15 60 10 0 15 -10 15
-31z m330 -71 c0 -70 -3 -98 -10 -88 -5 8 -10 34 -10 58 0 31 -4 42 -15 42 -8
0 -15 5 -15 10 0 6 7 10 15 10 10 0 15 11 15 35 0 19 5 35 10 35 6 0 10 -41
10 -102z m40 7 c0 -78 -3 -95 -15 -95 -12 0 -15 16 -15 88 0 49 3 92 7 95 18
19 23 -1 23 -88z m-1192 50 c-3 -24 0 -35 9 -35 7 0 13 -4 13 -10 0 -6 -35
-10 -85 -10 -50 0 -85 4 -85 10 0 6 26 10 59 10 44 0 60 4 65 16 12 30 6 34
-49 34 -30 0 -55 5 -55 10 0 6 29 10 66 10 l66 0 -4 -35z m180 -41 c-3 -63
-13 -72 -64 -60 -22 6 -24 11 -24 66 0 33 4 60 10 60 6 0 10 -9 10 -20 0 -15
7 -20 25 -20 20 0 25 5 25 27 0 19 3 24 11 16 5 -5 9 -37 7 -69z m410 24 l-3
-51 -45 -1 -45 -1 3 50 4 50 44 2 45 2 -3 -51z m302 32 c0 -17 7 -20 41 -20
32 0 42 4 46 20 10 39 23 19 23 -35 0 -52 -1 -55 -25 -55 -16 0 -25 -6 -25
-15 0 -10 11 -15 35 -15 57 0 40 -20 -17 -21 -78 -2 -112 2 -122 12 -6 5 6 9
32 9 31 0 42 4 42 15 0 9 -9 15 -25 15 -24 0 -25 3 -25 55 0 30 5 55 10 55 6
0 10 -9 10 -20z m448 4 c25 -17 29 -59 7 -71 -21 -12 -8 -53 17 -53 10 0 16
-4 13 -10 -8 -12 -165 -13 -165 -1 0 5 9 11 20 14 24 6 26 32 5 53 -34 34 -1
84 55 84 14 0 36 -7 48 -16z m82 -44 c0 -74 -17 -79 -22 -7 -5 55 -2 67 13 67
5 0 9 -27 9 -60z m-1640 40 c0 -5 -9 -10 -21 -10 -18 0 -20 -4 -14 -27 3 -16
16 -38 27 -50 18 -19 19 -23 5 -23 -9 0 -22 9 -30 20 -13 19 -14 19 -36 -6
-12 -14 -27 -22 -33 -18 -9 6 -9 9 0 12 15 5 42 55 42 77 0 8 -9 15 -20 15
-11 0 -20 5 -20 10 0 6 23 10 50 10 28 0 50 -4 50 -10z m1310 -23 c0 -18 7
-43 16 -55 20 -29 10 -41 -15 -18 -17 16 -19 15 -33 -5 -8 -14 -19 -19 -26
-15 -9 5 -7 14 8 33 11 14 20 41 20 59 0 24 5 34 15 34 10 0 15 -10 15 -33z
m520 -4 l41 -36 -42 -43 c-23 -24 -46 -41 -52 -37 -5 3 7 22 27 42 l36 37 -37
37 c-49 48 -26 48 27 0z m-1610 -98 l0 -35 -65 0 -65 0 0 35 0 35 65 0 65 0 0
-35z m540 16 c0 -24 20 -31 64 -24 29 4 36 2 36 -11 0 -11 -9 -16 -32 -17 -18
0 -47 -1 -63 -2 -29 -2 -30 -1 -26 36 3 37 21 53 21 18z m880 -21 c0 -5 -7
-10 -15 -10 -8 0 -15 5 -15 10 0 6 7 10 15 10 8 0 15 -4 15 -10z m-1145 -50
c-3 -5 -12 -10 -18 -10 -7 0 -6 4 3 10 19 12 23 12 15 0z m980 -30 c-3 -5 -12
-10 -18 -10 -7 0 -6 4 3 10 19 12 23 12 15 0z m-875 -10 c-8 -5 -19 -10 -25
-10 -5 0 -3 5 5 10 8 5 20 10 25 10 6 0 3 -5 -5 -10z m330 6 c0 -2 -7 -7 -16
-10 -8 -3 -12 -2 -9 4 6 10 25 14 25 6z m554 -34 c248 -1 383 -5 390 -12 12
-12 34 -11 -334 -11 -238 0 -277 -2 -292 -16 -10 -9 -18 -11 -18 -5 0 6 6 12
13 15 6 2 -150 5 -347 5 -268 1 -364 -2 -375 -11 -12 -9 -13 -9 -7 1 6 9 -58
12 -303 12 -201 0 -311 4 -311 10 0 9 109 11 943 12 180 0 247 3 247 11 0 9 2
9 8 1 5 -8 121 -11 386 -12z m-894 -35 c0 -2 -9 -12 -20 -22 -24 -21 -27 -14
-4 9 15 15 24 20 24 13z m540 -1 c0 -2 -7 -7 -16 -10 -8 -3 -12 -2 -9 4 6 10
25 14 25 6z m715 -6 c-3 -5 -12 -10 -18 -10 -7 0 -6 4 3 10 19 12 23 12 15 0z
m-1215 -4 c0 -2 -7 -7 -16 -10 -8 -3 -12 -2 -9 4 6 10 25 14 25 6z m338 -9
c14 4 14 3 2 -5 -16 -12 -30 -7 -29 11 0 9 2 9 5 0 3 -7 13 -9 22 -6z m-83 -7
c-3 -5 -12 -10 -18 -10 -7 0 -6 4 3 10 19 12 23 12 15 0z m-410 -10 c-3 -5
-12 -10 -18 -10 -7 0 -6 4 3 10 19 12 23 12 15 0z m495 -19 c0 -5 -9 -7 -20
-4 -11 3 -20 7 -20 9 0 2 9 4 20 4 11 0 20 -4 20 -9z m-290 -5 c0 -2 -7 -7
-16 -10 -8 -3 -12 -2 -9 4 6 10 25 14 25 6z m-135 -16 c-3 -5 -12 -10 -18 -10
-7 0 -6 4 3 10 19 12 23 12 15 0z m1115 -4 c0 -2 -7 -7 -16 -10 -8 -3 -12 -2
-9 4 6 10 25 14 25 6z m-1092 -40 c-7 -8 -15 -12 -17 -11 -5 6 10 25 20 25 5
0 4 -6 -3 -14z m302 10 c0 -2 -7 -7 -16 -10 -8 -3 -12 -2 -9 4 6 10 25 14 25
6z m515 -16 c-3 -5 -12 -10 -18 -10 -7 0 -6 4 3 10 19 12 23 12 15 0z m-520
-50 c-3 -5 -12 -10 -18 -10 -7 0 -6 4 3 10 19 12 23 12 15 0z"/>
<path d="M1283 5193 c-18 -7 -16 -30 3 -37 47 -18 108 6 82 32 -12 12 -62 15
-85 5z"/>
<path d="M2290 5145 c0 -12 13 -15 55 -15 42 0 55 3 55 15 0 12 -13 15 -55 15
-42 0 -55 -3 -55 -15z"/>
<path d="M1540 5150 c0 -38 2 -40 30 -40 28 0 30 2 30 40 0 38 -2 40 -30 40
-28 0 -30 -2 -30 -40z"/>
<path d="M1270 5030 c0 -18 7 -20 55 -20 48 0 55 2 55 20 0 18 -7 20 -55 20
-48 0 -55 -2 -55 -20z"/>
<path d="M3250 5025 c0 -11 12 -15 50 -15 38 0 50 4 50 15 0 11 -12 15 -50 15
-38 0 -50 -4 -50 -15z"/>
<path d="M2798 4397 c-41 -38 -63 -76 -50 -89 5 -5 15 -7 21 -3 14 8 64 105
58 111 -2 2 -15 -6 -29 -19z"/>
<path d="M1435 4510 c3 -5 10 -10 16 -10 5 0 9 5 9 10 0 6 -7 10 -16 10 -8 0
-12 -4 -9 -10z"/>
<path d="M1435 4480 c3 -5 10 -10 16 -10 5 0 9 5 9 10 0 6 -7 10 -16 10 -8 0
-12 -4 -9 -10z"/>
<path d="M1615 4500 c-3 -5 -1 -10 4 -10 6 0 11 5 11 10 0 6 -2 10 -4 10 -3 0
-8 -4 -11 -10z"/>
<path d="M2800 1790 c0 -5 5 -10 11 -10 5 0 7 5 4 10 -3 6 -8 10 -11 10 -2 0
-4 -4 -4 -10z"/>
<path d="M1640 704 c0 -21 4 -25 23 -22 14 2 23 11 25 26 3 18 -1 22 -22 22
-21 0 -26 -5 -26 -26z"/>
<path d="M2050 746 c0 -32 44 -31 48 2 3 18 -1 22 -22 22 -21 0 -26 -5 -26
-24z"/>
<path d="M2422 728 c6 -18 78 -19 78 -1 0 9 -13 13 -41 13 -28 0 -39 -4 -37
-12z"/>
<path d="M2785 764 c-12 -12 -13 -19 -4 -30 16 -19 63 -18 80 2 11 14 10 18
-6 30 -25 18 -50 18 -70 -2z"/>
<path d="M2797 680 c3 -11 13 -20 23 -20 10 0 20 9 23 20 4 16 0 20 -23 20
-23 0 -27 -4 -23 -20z"/>
<path d="M1420 655 c0 -11 12 -15 45 -15 33 0 45 4 45 15 0 11 -12 15 -45 15
-33 0 -45 -4 -45 -15z"/>
<path d="M3843 2945 c-32 -22 -30 -53 4 -61 37 -10 78 15 78 46 0 20 -6 26
-30 28 -16 1 -40 -4 -52 -13z"/>
<path d="M875 2065 c17 -8 37 -14 45 -14 8 0 0 6 -19 14 -42 19 -66 18 -26 0z"/>
</g>
</svg>
