<svg width="42" height="42" viewBox="0 0 42 42" fill="none" xmlns="http://www.w3.org/2000/svg">
<g clip-path="url(#clip0_844_2768)" filter="url(#filter0_d_844_2768)">
<mask id="mask0_844_2768" style="mask-type:alpha" maskUnits="userSpaceOnUse" x="4" y="0" width="34" height="34">
<path fill-rule="evenodd" clip-rule="evenodd" d="M20.9905 0.019043C11.6069 0.019043 4 7.62599 4 17.0097C4 26.3931 11.6069 34 20.9905 34C30.374 34 37.9808 26.3931 37.9808 17.0097C37.9808 7.62599 30.374 0.019043 20.9905 0.019043Z" fill="white"/>
</mask>
<g mask="url(#mask0_844_2768)">
<path fill-rule="evenodd" clip-rule="evenodd" d="M20.9905 0.019043C11.6069 0.019043 4 7.62599 4 17.0097C4 26.3931 11.6069 34 20.9905 34C30.374 34 37.9808 26.3931 37.9808 17.0097C37.9808 7.62599 30.374 0.019043 20.9905 0.019043Z" fill="url(#paint0_radial_844_2768)"/>
</g>
<path fill-rule="evenodd" clip-rule="evenodd" d="M18.2162 25.8262C18.0341 25.9468 17.8273 25.961 17.5939 25.9597C17.638 25.7546 17.6743 25.5749 17.7176 25.3971C17.7257 25.364 17.7334 25.313 17.7864 25.313C17.9477 25.313 18.0905 25.315 18.2384 25.369C18.3913 25.4247 18.3829 25.7158 18.2162 25.8262ZM17.8981 26.8893C17.9378 27.0478 17.958 27.2113 17.9819 27.3732C17.9965 27.4728 18.0479 27.5141 18.1476 27.5111C18.2807 27.5072 18.414 27.5113 18.5471 27.51C18.7283 27.5083 18.755 27.4779 18.7105 27.2962C18.6317 26.9751 18.5843 26.5814 18.4045 26.3337C18.4383 26.3165 18.557 26.2722 18.6193 26.2388C18.9499 26.0617 19.1134 25.7436 19.06 25.3836C19.0139 25.0739 18.8125 24.8623 18.4254 24.8142C18.0413 24.7665 17.65 24.7725 17.2617 24.7683C17.2383 24.7679 17.1898 24.7667 17.1625 24.7894C17.1325 24.814 17.1244 24.8637 17.1185 24.8903C16.9364 25.7098 16.7634 26.5312 16.5885 27.3521C16.5662 27.4566 16.6088 27.5095 16.7154 27.5099C16.8384 27.5103 16.9617 27.5045 17.0842 27.5119C17.2075 27.5195 17.2704 27.4779 17.2934 27.3488C17.3374 27.102 17.3932 26.8572 17.4537 26.6139C17.4669 26.5614 17.4793 26.4703 17.513 26.4716C17.513 26.4716 17.6617 26.4584 17.7 26.4635C17.7386 26.4686 17.8347 26.636 17.8981 26.8893Z" fill="#C3C3C3"/>
<path fill-rule="evenodd" clip-rule="evenodd" d="M15.2383 26.1886C15.3012 25.9045 15.3611 25.633 15.4227 25.3618C15.4268 25.3437 15.4446 25.3137 15.4546 25.3141C15.5951 25.3216 15.7451 25.307 15.8711 25.355C15.9335 25.3788 15.9845 25.5199 15.9837 25.6074C15.9807 25.9754 15.6718 26.222 15.2383 26.1886ZM16.0964 24.8178C15.8812 24.7762 15.4399 24.7565 15.4395 24.7608C15.2858 24.7608 15.1321 24.7614 14.9783 24.7606C14.8836 24.76 14.8248 24.7989 14.8044 24.8966C14.6318 25.7136 14.4582 26.53 14.2837 27.3467C14.2591 27.4617 14.3063 27.511 14.4191 27.5105C14.5471 27.5097 14.6755 27.5067 14.8034 27.5118C14.9081 27.5159 14.9636 27.4766 14.9831 27.3697C15.0134 27.2035 15.0628 27.0405 15.0891 26.874C15.0984 26.8146 15.1081 26.768 15.1388 26.7431C15.1695 26.7182 15.2209 26.715 15.2791 26.7069C15.5261 26.6729 15.7794 26.6392 16.0126 26.5563C16.4594 26.3975 16.6872 26.0591 16.6996 25.5825C16.7106 25.1645 16.5078 24.8974 16.0964 24.8178Z" fill="#C3C3C3"/>
<path fill-rule="evenodd" clip-rule="evenodd" d="M22.111 25.1837C22.3496 24.6816 22.1979 24.7725 22.7691 24.7622C22.8047 24.7615 22.8407 24.7609 22.8763 24.7633C23.0344 24.7738 23.0732 24.8329 23.0006 24.9692C22.567 25.782 22.1328 26.5944 21.6924 27.4034C21.6647 27.4539 21.5854 27.5003 21.5267 27.5052C21.364 27.519 21.1994 27.5085 21.0356 27.5106C20.9331 27.5117 20.893 27.4628 20.8824 27.3627C20.7963 26.5588 20.708 25.7552 20.6164 24.9519C20.601 24.8171 20.6517 24.7598 20.7833 24.7614C20.9162 24.7631 21.0495 24.7652 21.1825 24.7614C21.3223 24.7571 21.3683 24.824 21.3705 24.9585L21.405 26.6903L22.111 25.1837Z" fill="#C3C3C3"/>
<path fill-rule="evenodd" clip-rule="evenodd" d="M13.3143 26.2361C13.1597 26.2915 12.8178 26.3227 12.8097 26.3057C12.864 26.1152 12.9543 25.9468 13.1545 25.8745C13.2585 25.8368 13.382 25.8147 13.4471 25.9484C13.4951 26.0467 13.4371 26.1922 13.3143 26.2361ZM13.7066 25.4107C13.473 25.3297 13.2337 25.3306 12.9956 25.3896C12.2763 25.5677 12.0018 26.2858 12.0749 26.8808C12.1184 27.2346 12.3329 27.4669 12.6885 27.5097C12.933 27.539 13.1891 27.5303 13.433 27.4922C13.782 27.4375 13.7792 27.4194 13.8413 27.0713C13.879 26.8608 13.8438 26.8386 13.6387 26.8892C13.4269 26.9415 13.2101 26.9771 12.9934 27.003C12.8877 27.0157 12.79 26.9734 12.7725 26.8165C12.8375 26.8117 12.893 26.8085 12.9482 26.8034C13.26 26.7756 13.5726 26.7475 13.8451 26.5716C14.0842 26.4174 14.1786 26.1903 14.1454 25.9123C14.1138 25.6482 13.9462 25.4938 13.7066 25.4107Z" fill="#C3C3C3"/>
<path fill-rule="evenodd" clip-rule="evenodd" d="M27.7847 27.3587C27.7686 27.5094 27.8355 27.5098 28.1034 27.5081C28.3825 27.5063 28.4365 27.5361 28.4693 27.4003L28.6669 26.4226L29.8005 24.9861C29.8329 24.9435 29.8644 24.8804 29.8517 24.834C29.8334 24.767 29.7536 24.7728 29.7536 24.7728H29.2103C29.118 24.7728 29.1089 24.8087 29.1089 24.8087C28.9821 24.9786 28.4753 25.7541 28.434 25.8081C28.4116 25.7283 28.2724 25.1764 28.2295 24.9505C28.2106 24.8516 28.1706 24.7962 28.0981 24.7766C28.07 24.769 27.5786 24.7738 27.5535 24.7781C27.4483 24.7956 27.4373 24.8513 27.4871 24.9951L27.9826 26.3918L27.7847 27.3587Z" fill="#C3C3C3"/>
<path fill-rule="evenodd" clip-rule="evenodd" d="M26.9056 26.9945C26.9036 26.91 26.855 26.8871 26.7409 26.9093C26.5904 26.9384 26.4416 26.9821 26.2898 26.9969C26.0099 27.0239 25.9053 26.9251 25.8982 26.6411C25.8891 26.2799 25.9827 25.9408 26.1521 25.6248C26.3232 25.3055 26.5966 25.2003 26.9419 25.3066C27.2595 25.4043 27.2563 25.4036 27.3292 25.07C27.3529 24.9612 27.3232 24.9008 27.2224 24.8525C27.1095 24.7982 26.9625 24.7259 26.6789 24.7097C26.1322 24.7097 25.8375 24.9159 25.5793 25.3091C25.3094 25.7203 25.1891 26.1772 25.2007 26.6634C25.2142 27.2412 25.5375 27.542 26.1182 27.5433C26.2202 27.5436 26.3226 27.5321 26.4238 27.5191C26.7714 27.4745 26.8176 27.4656 26.8721 27.205C26.8799 27.1678 26.9061 27.0137 26.9056 26.9945Z" fill="#C3C3C3"/>
<path fill-rule="evenodd" clip-rule="evenodd" d="M20.25 24.7628C20.1323 24.7606 20.0142 24.7667 19.8968 24.7597C19.7578 24.7514 19.6998 24.8123 19.6718 24.9481C19.5217 25.6797 19.3636 26.4098 19.2067 27.1401C19.1941 27.1981 19.1836 27.2471 19.1761 27.2882C19.1723 27.3087 19.1693 27.3276 19.1674 27.3445C19.1652 27.3615 19.1641 27.3767 19.1641 27.3904C19.1631 27.5108 19.244 27.5105 19.5053 27.5102C19.5719 27.5102 19.6385 27.5079 19.7049 27.5108C19.7959 27.5145 19.8461 27.4766 19.8658 27.3847C20.0398 26.569 20.2154 25.7538 20.3922 24.9387C20.4187 24.8161 20.3658 24.7649 20.25 24.7628Z" fill="#C3C3C3"/>
<path fill-rule="evenodd" clip-rule="evenodd" d="M23.6654 26.4365L24.123 25.51L24.1652 26.4365H23.6654ZM24.9393 27.3055C24.9228 27.1323 24.8988 26.96 24.8778 26.7874C24.8033 26.1729 24.7261 25.5588 24.6558 24.9436C24.6404 24.8073 24.5759 24.7573 24.4455 24.7624C24.3176 24.7671 24.1892 24.7695 24.0616 24.7611C23.922 24.752 23.8384 24.8038 23.7704 24.9311C23.3562 25.7077 22.9334 26.4797 22.514 27.2536L22.4544 27.3513C22.3929 27.5076 22.514 27.5095 22.514 27.5095H23.0464C23.1668 27.5095 23.1823 27.4425 23.1823 27.4425L23.4156 26.9735H24.1408C24.2253 26.9735 24.2178 27.0041 24.2178 27.0041C24.2178 27.0041 24.2151 27.1811 24.2253 27.3502C24.2358 27.5194 24.3152 27.5095 24.3152 27.5095H24.7529C24.9404 27.5078 24.9569 27.4928 24.9393 27.3055Z" fill="#C3C3C3"/>
<path fill-rule="evenodd" clip-rule="evenodd" d="M23.746 29.317C23.7921 29.3262 23.8413 29.3324 23.9149 29.3324C24.1826 29.3324 24.358 29.1602 24.358 28.9541C24.358 28.7541 24.2133 28.6896 24.0412 28.6896C23.9581 28.6896 23.8996 28.6956 23.8626 28.7048L23.746 29.317ZM23.4875 28.3912C23.6197 28.3574 23.8288 28.3358 24.0288 28.3358C24.2133 28.3358 24.4287 28.3666 24.5793 28.4741C24.7177 28.5696 24.8038 28.714 24.8038 28.9141C24.8038 29.1754 24.6839 29.3724 24.521 29.4984C24.3518 29.6308 24.1119 29.6891 23.8598 29.6891C23.7859 29.6891 23.7242 29.683 23.6782 29.6768L23.5368 30.4242H23.103L23.4875 28.3912Z" fill="white"/>
<path fill-rule="evenodd" clip-rule="evenodd" d="M25.2007 28.3512H25.6435L25.3237 30.0367H26.1203L26.0465 30.4242H24.8069L25.2007 28.3512Z" fill="white"/>
<path fill-rule="evenodd" clip-rule="evenodd" d="M27.1381 28.3512L26.9104 29.5447C26.8952 29.6154 26.889 29.6983 26.889 29.7908C26.889 29.9566 26.9905 30.086 27.1904 30.086C27.4209 30.086 27.5749 29.9322 27.6488 29.5477L27.8763 28.3512H28.3192L28.0947 29.5292C27.9748 30.1567 27.6978 30.4582 27.1349 30.4582C26.7076 30.4582 26.446 30.2397 26.446 29.7968C26.446 29.7075 26.4584 29.606 26.4769 29.5076L26.6953 28.3512H27.1381Z" fill="white"/>
<path fill-rule="evenodd" clip-rule="evenodd" d="M28.402 29.9445C28.525 30.0183 28.7004 30.0766 28.891 30.0766C29.0632 30.0766 29.2201 29.9967 29.2201 29.8337C29.2201 29.7168 29.1309 29.6399 28.9403 29.5415C28.7188 29.4216 28.5097 29.2616 28.5097 28.9909C28.5097 28.5725 28.8756 28.3174 29.3278 28.3174C29.5799 28.3174 29.7277 28.3727 29.8168 28.4219L29.6784 28.791C29.6107 28.7541 29.4633 28.6957 29.2911 28.6987C29.0849 28.6987 28.9771 28.8032 28.9771 28.9171C28.9771 29.0371 29.1033 29.111 29.2787 29.2093C29.5307 29.3415 29.6907 29.5109 29.6907 29.7568C29.6907 30.2182 29.3093 30.4551 28.8481 30.4551C28.5588 30.4551 28.3527 30.3812 28.2544 30.3073L28.402 29.9445Z" fill="white"/>
<path fill-rule="evenodd" clip-rule="evenodd" d="M33.8404 19.7126C33.638 19.1027 33.1913 18.8412 32.5108 18.9351C32.4906 18.9379 32.473 18.9408 32.4607 18.9416C32.1563 18.9544 31.8495 19.1794 31.3178 19.668C30.6816 17.7282 29.885 15.5201 29.3361 14.7739C28.5379 13.6887 27.6642 13.1295 26.9021 12.8481C28.2281 12.1246 29.1276 10.7179 29.1276 9.10097C29.1276 6.74496 27.2176 4.83508 24.8616 4.83508C22.5057 4.83508 20.5958 6.74496 20.5958 9.10097C20.5958 10.736 21.5161 12.1556 22.8664 12.8716C22.1285 13.1601 21.2592 13.7177 20.3874 14.7739C19.7268 15.5741 18.8582 18.2506 18.2511 20.3341C17.9566 20.2974 17.6658 20.252 17.3794 20.1988C18.1417 17.8734 18.9144 15.6442 19.2762 14.9896C20.1156 13.4709 21.2507 12.7434 21.2507 12.7434C18.3501 9.4513 20.4977 6.44516 20.9215 5.91514C20.6602 5.86096 20.3893 5.83236 20.1117 5.83236C17.9148 5.83236 16.1339 7.61339 16.1339 9.8102C16.1339 11.3348 16.992 12.6584 18.2511 13.3262C17.5632 13.5952 16.7526 14.1152 15.9396 15.0999C15.4237 15.7246 14.7725 17.5755 14.2418 19.3016C13.9657 19.1956 13.7004 19.0866 13.4454 18.9764C13.8669 17.7324 14.2696 16.5938 14.5359 15.9569C15.3513 14.0065 16.6622 13.2871 16.6622 13.2871C16.6622 13.2871 13.7493 10.4506 16.2626 6.82122C15.9612 6.74464 15.6455 6.70365 15.3204 6.70365C13.2131 6.70365 11.5048 8.41191 11.5048 10.5191C11.5048 11.9816 12.328 13.2512 13.5358 13.8916C12.8758 14.1496 12.1708 14.6484 11.3911 15.5931C11.1208 15.9203 10.8065 16.5989 10.4912 17.4168C10.2206 17.2436 10.0693 17.1353 10.0614 17.1296C9.8617 16.9845 9.58176 17.0285 9.43622 17.2285C9.29085 17.4284 9.33502 17.7084 9.53489 17.8537C9.71871 17.9877 14.0998 21.1338 19.4181 21.3286C24.546 21.516 27.0403 19.9752 28.2387 19.2347L28.4065 19.1316C28.4838 19.0842 28.7457 18.9376 28.8615 19.035C28.981 19.1359 29.0623 19.488 28.9041 19.8871C28.6666 20.4857 27.9321 21.2061 27.3879 21.5302C27.0444 21.735 26.7954 22.1972 26.9923 22.587C27.3676 23.3306 28.6499 22.7925 29.0714 22.6155C29.8478 22.2895 30.7108 21.4716 31.4724 20.7501C31.846 20.3959 32.3544 19.9142 32.5351 19.8337C32.564 19.8311 32.5972 19.827 32.6336 19.8219C32.8811 19.7876 32.9248 19.7967 32.9904 19.9945C33.0926 20.3019 33.8752 23.0878 30.0084 26.2184C29.8162 26.3741 29.7865 26.6559 29.942 26.848C30.0307 26.9573 30.1599 27.014 30.2903 27.014C30.3891 27.014 30.4889 26.9815 30.5717 26.9143C33.8636 24.2492 34.3898 21.3692 33.8404 19.7126Z" fill="white"/>
</g>
<defs>
<filter id="filter0_d_844_2768" x="0" y="0" width="42" height="42" filterUnits="userSpaceOnUse" color-interpolation-filters="sRGB">
<feFlood flood-opacity="0" result="BackgroundImageFix"/>
<feColorMatrix in="SourceAlpha" type="matrix" values="0 0 0 0 0 0 0 0 0 0 0 0 0 0 0 0 0 0 127 0" result="hardAlpha"/>
<feOffset dy="4"/>
<feGaussianBlur stdDeviation="2"/>
<feComposite in2="hardAlpha" operator="out"/>
<feColorMatrix type="matrix" values="0 0 0 0 0 0 0 0 0 0 0 0 0 0 0 0 0 0 0.25 0"/>
<feBlend mode="normal" in2="BackgroundImageFix" result="effect1_dropShadow_844_2768"/>
<feBlend mode="normal" in="SourceGraphic" in2="effect1_dropShadow_844_2768" result="shape"/>
</filter>
<radialGradient id="paint0_radial_844_2768" cx="0" cy="0" r="1" gradientUnits="userSpaceOnUse" gradientTransform="translate(15.1106 4.21135) scale(31.0439 31.044)">
<stop stop-color="#BCBCBA"/>
<stop offset="1" stop-color="#676766"/>
</radialGradient>
<clipPath id="clip0_844_2768">
<rect width="34" height="34" fill="white" transform="translate(4)"/>
</clipPath>
</defs>
</svg>
